<?xml version="1.0" encoding="utf-8"?>
<?xml-stylesheet type="text/xsl" href="rss1.xsl"?>
<rss version="2.0" xmlns:atom="http://www.w3.org/2005/Atom" xmlns:content="http://purl.org/rss/1.0/modules/content/" xmlns:dc="http://purl.org/dc/elements/1.1/" xmlns:media="http://search.yahoo.com/mrss/">
<channel>
 <title>Getty</title>
 <link>http://www.gettyimg.com/</link>
 <atom:link href="http://www.gettyimg.com/" rel="self" type="application/rss+xml" />

 
                <item>
                <title><![CDATA[【HD Live Performances】HDTV - Adam Lambert - Whataya Want from Me 20240524 HNTV Singer S09E03 1080i 50fps.ts]]></title>
                <link><![CDATA[https://sharemania.us/threads/adam-lambert-whataya-want-from-me-20240524-hntv-singer-s09e03-1080i-50fps-ts.245158/]]></link>
                <description><![CDATA[<article>
<blockquote class="messageText SelectQuoteContainer ugc baseHtml">
<img src="https://images2.imgbox.com/b3/9b/aQycpvBx_o.jpg" class="bbCodeImage LbImage" alt="[​IMG]" data-url="https://images2.imgbox.com/b3/9b/aQycpvBx_o.jpg" style=""><br>
<br>
<br>
Complete name : D:\【HDTV】Adam Lambert - Whataya Want from Me (20240524 HNTV Singer S09E03 1920x1080 H264 513M).ts<br>
Format : MPEG-TS<br>
File size : 513 MiB<br>
Duration : 6 min 17 s<br>
Overall bit rate mode : Variable<br>
Overall bit rate : 11.4 Mb/s<br>
Frame rate : 25.000 FPS<br>
Video<br>
ID : 4130 (0x1022)<br>
Menu ID : 412 (0x19C)<br>
Format : AVC<br>
Format/Info : Advanced Video Codec<br>
Format profile : High@L4.1<br>
Format settings : CABAC / 4 Ref Frames<br>
Format settings, CABAC : Yes<br>
Format settings, Reference fra : 4 frames<br>
Codec ID : 27<br>
Duration : 6 min 17 s<br>
Bit rate mode : Constant<br>
Bit rate : 10.9 Mb/s<br>
Width : 1 920 pixels<br>
Height : 1 080 pixels<br>
Display aspect ratio : 16:9<br>
Frame rate : 25.000 FPS<br>
Standard : Component<br>
Color space : YUV<br>
Chroma subsampling : 4:2:0<br>
Bit depth : 8 bits<br>
Scan type : Interlaced<br>
Scan type, store method : Separated fields<br>
Scan order : Top Field First<br>
Bits/(Pixel*Frame) : 0.210<br>
Stream size : 477 MiB (93%)<br>
Color range : Limited<br>
Color primaries : BT.709<br>
Transfer characteristics : BT.709<br>
Matrix coefficients : BT.709<br>
Audio<br>
ID : 4131 (0x1023)<br>
Menu ID : 412 (0x19C)<br>
Format : E-AC-3<br>
Format/Info : Enhanced AC-3<br>
Commercial name : Dolby Digital Plus<br>
Codec ID : 6<br>
Duration : 6 min 17 s<br>
Bit rate mode : Constant<br>
Bit rate : 256 kb/s<br>
Channel(s) : 6 channels<br>
Channel layout : L R C LFE Ls Rs<br>
Sampling rate : 48.0 kHz<br>
Frame rate : 31.250 FPS (1536 SPF)<br>
Compression mode : Lossy<br>
Delay relative to video : -644 ms<br>
Stream size : 11.5 MiB (2%)<br>
Service kind : Complete Main<br>
<br>
<br>
<br>
Unzip password：xingshouer<br>
<br>
mega：
<div class="bbCodeBlock bbCodeVfcHH HiddenContent">
<div class="attribution type">Hidden Content:</div>
<blockquote>You must either reply or click 'Like' to see the hidden information contained here.</blockquote>
</div>
<div class="messageTextEndMarker">&nbsp;</div>
</blockquote>
</article>]]></description>
                <author><![CDATA[xingshouyi]]></author>
                </item>

                
                <item>
                <title><![CDATA[【Singles (lossless)】FLAC - Belinda Carlisle - Circle In The Sand (Maxi CD Single) (EU) (1988) [FLAC]]]></title>
                <link><![CDATA[https://sharemania.us/threads/belinda-carlisle-circle-in-the-sand-maxi-cd-single-eu-1988-flac.245160/]]></link>
                <description><![CDATA[<article>
<blockquote class="messageText SelectQuoteContainer ugc baseHtml">
<div style="text-align: center"><img src="https://i123.fastpic.org/big/2024/0525/97/1bcc56154e554159a262716275cf3f97.jpg" class="bbCodeImage LbImage" alt="[​IMG]" data-url="https://i123.fastpic.org/big/2024/0525/97/1bcc56154e554159a262716275cf3f97.jpg" style=""><br>
<br>
<b># VSCD 1074</b> <i>(Maxi CD Single) (EU)</i><br>
<b><a href="https://www.discogs.com/release/641340-Belinda-Carlisle-Circle-In-The-Sand" target="_blank" class="externalLink" rel="nofollow">DISCOGS</a></b><br>
Belinda Carlisle - <b>Circle In The Sand</b> (7inch Mix) (3:43)<br>
Belinda Carlisle - <b>Circle In The Sand</b> (Seaside Mood Groove Mix) (3:51)<br>
Belinda Carlisle - <b>Circle In The Sand</b> (Sandblast Multi Mix) (5:18)<br>
Belinda Carlisle - <b>Circle In The Sand</b> (Beach Party Mix) (7:07)<br>
<div class="bbCodeBlock bbCodeVfcHH HiddenContent">
<div class="attribution type">Hidden Content:</div>
<blockquote>You must reply before you can see the hidden data contained here.</blockquote>
</div></div>
<div class="messageTextEndMarker">&nbsp;</div>
</blockquote>
</article>]]></description>
                <author><![CDATA[Bnik]]></author>
                </item>

                
                <item>
                <title><![CDATA[【Requests】[REQ AUD] - Busta Rhymes - Thank You (FLAC)]]></title>
                <link><![CDATA[https://sharemania.us/threads/busta-rhymes-thank-you-flac.245161/]]></link>
                <description><![CDATA[<article>
<blockquote class="messageText SelectQuoteContainer ugc baseHtml">
Anybody got this gem in FLAC?<br>
<br>
<a href="https://www.qobuz.com/us-en/album/thank-you-busta-rhymes-q-tip-kanye-west-lil-wayne/0060253766471" target="_blank" class="externalLink" rel="nofollow">https://www.qobuz.com/us-en/album/thank-you-busta-rhymes-q-tip-kanye-west-lil-wayne/0060253766471</a>
<div class="messageTextEndMarker">&nbsp;</div>
</blockquote>
</article>]]></description>
                <author><![CDATA[Nottzcrew]]></author>
                </item>

                
                <item>
                <title><![CDATA[【Requests】[REQ AUD] - Trippie Redd - Saint Michael V2 (old version with Pepe Lit) LOSSLESS FLAC]]></title>
                <link><![CDATA[https://sharemania.us/threads/trippie-redd-saint-michael-v2-old-version-with-pepe-lit-lossless-flac.245159/]]></link>
                <description><![CDATA[<article>
<blockquote class="messageText SelectQuoteContainer ugc baseHtml">
I'm searching for the LOSSLESS FLAC versions of the old Saint Michael V2 from Trippie Redd that has the song "Pepe Lit" included.
<div class="messageTextEndMarker">&nbsp;</div>
</blockquote>
</article>]]></description>
                <author><![CDATA[userguy]]></author>
                </item>

                </channel></rss>